HIERARCHY
ROOT Hips
{
    OFFSET 0.000000 0.000000 0.000000
    CHANNELS 6 Xposition Yposition Zposition Zrotation Xrotation Yrotation
    JOINT Spine
    {
        OFFSET -0.000000 7.236184 0.000000
        CHANNELS 3 Zrotation Xrotation Yrotation
        JOINT Spine1
        {
            OFFSET -0.000000 20.420147 0.000000
            CHANNELS 3 Zrotation Xrotation Yrotation
            JOINT Neck
            {
                OFFSET -0.000000 20.336288 1.848754
                CHANNELS 3 Zrotation Xrotation Yrotation
                JOINT Head
                {
                    OFFSET -0.000000 12.354461 -1.764923
                    CHANNELS 3 Zrotation Xrotation Yrotation
                    End Site
                    {
                        OFFSET -0.000000 22.061537 0.000000
                    }
                }
            }
            JOINT LeftShoulder
            {
                OFFSET 3.573296 18.396038 -0.314103
                CHANNELS 3 Zrotation Xrotation Yrotation
                JOINT LeftArm
                {
                    OFFSET 10.880760 0.000000 0.000000
                    CHANNELS 3 Zrotation Xrotation Yrotation
                    JOINT LeftForeArm
                    {
                        OFFSET 27.185530 0.000000 0.000000
                        CHANNELS 3 Zrotation Xrotation Yrotation
                        JOINT LeftHand
                        {
                            OFFSET 27.825975 0.000000 0.000000
                            CHANNELS 3 Zrotation Xrotation Yrotation
                            End Site
                            {
                                OFFSET 13.236923 0.000000 0.000000
                            }
                        }
                    }
                }
            }
            JOINT RightShoulder
            {
                OFFSET -3.474926 18.396038 -0.314103
                CHANNELS 3 Zrotation Xrotation Yrotation
                JOINT RightArm
                {
                    OFFSET -10.880760 0.000000 0.000000
                    CHANNELS 3 Zrotation Xrotation Yrotation
                    JOINT RightForeArm
                    {
                        OFFSET -27.185530 0.000000 0.000000
                        CHANNELS 3 Zrotation Xrotation Yrotation
                        JOINT RightHand
                        {
                            OFFSET -27.825975 0.000000 0.000000
                            CHANNELS 3 Zrotation Xrotation Yrotation
                            End Site
                            {
                                OFFSET -13.236923 0.000000 0.000000
                            }
                        }
                    }
                }
            }
        }
    }
    JOINT LeftUpLeg
    {
        OFFSET 8.824615 0.000000 0.000000
        CHANNELS 3 Zrotation Xrotation Yrotation
        JOINT LeftLeg
        {
            OFFSET -0.000000 -35.111282 0.000000
            CHANNELS 3 Zrotation Xrotation Yrotation
            JOINT LeftFoot
            {
                OFFSET -0.000000 -42.324711 0.000000
                CHANNELS 3 Zrotation Xrotation Yrotation
                JOINT LeftToeBase
                {
                    OFFSET -0.000000 -5.735999 13.236923
                    CHANNELS 3 Zrotation Xrotation Yrotation
                    End Site
                    {
                        OFFSET -0.000000 0.000000 3.529846
                    }
                }
            }
        }
    }
    JOINT RightUpLeg
    {
        OFFSET -8.824615 0.000000 0.000000
        CHANNELS 3 Zrotation Xrotation Yrotation
        JOINT RightLeg
        {
            OFFSET -0.000000 -35.111282 0.000000
            CHANNELS 3 Zrotation Xrotation Yrotation
            JOINT RightFoot
            {
                OFFSET -0.000000 -42.324711 0.000000
                CHANNELS 3 Zrotation Xrotation Yrotation
                JOINT RightToeBase
                {
                    OFFSET -0.000000 -5.735999 13.236923
                    CHANNELS 3 Zrotation Xrotation Yrotation
                    End Site
                    {
                        OFFSET -0.000000 0.000000 3.529846
                    }
                }
            }
        }
    }
}
MOTION
Frames:    5
Frame Time:    0.008333
-1.366226    81.711426    94.519608    -0.243509    -4.292826    -176.375458    -2.069371    -14.359310    0.831033    -1.311072    3.875234    1.136139    3.007595    7.406721    -3.821689    5.908855    4.441940    -3.608619    1.117558    18.971539    -5.003212    -44.672626    47.612690    -37.813854    -2.822321    -3.706801    -17.634556    17.157074    -3.719285    2.819483    -3.609502    2.802571    0.286051    44.536518    -17.488798    42.541759    -53.423134    -31.170544    64.828575    -41.105415    4.683049    1.124636    3.603619    -0.841734    -0.383704    -2.872985    5.353854    1.989916    -0.895943    -7.780558    -8.602849    0.317047    0.399452    -0.351183    -2.788728    1.411277    -1.252328    2.928397    3.082217    3.276296    -2.046808    -6.541901    -13.044017    0.040842    -0.400307    -0.044198    
-1.368977    81.711220    94.519806    -0.243017    -4.283246    -176.358948    -2.066935    -14.362441    0.818343    -1.302820    3.893497    1.123074    3.013658    7.386642    -3.802394    5.900159    4.411910    -3.588921    1.111325    18.965931    -4.982202    -44.664612    47.603928    -37.840034    -2.828810    -3.688452    -17.616011    17.154282    -3.703022    2.809657    -3.609703    2.818029    0.279481    43.586208    -16.876776    42.038010    -53.958778    -30.920092    65.049988    -41.210617    5.265753    2.080812    3.603332    -0.837504    -0.388028    -2.873444    5.359088    1.973941    -0.894696    -7.781150    -8.599208    0.317814    0.401159    -0.352032    -2.789804    1.417986    -1.256978    2.929312    3.092420    3.279864    -2.049775    -6.547229    -13.058361    0.041522    -0.399484    -0.044934    
-1.371351    81.711105    94.520645    -0.241667    -4.272583    -176.342575    -2.063953    -14.363938    0.808804    -1.296933    3.912483    1.113241    3.018990    7.367470    -3.787497    5.900037    4.383013    -3.572882    1.106023    18.959717    -4.964471    -44.657330    47.587357    -37.863857    -2.841672    -3.665669    -17.600790    17.154907    -3.683385    2.799260    -3.607054    2.836357    0.280538    42.787739    -16.371271    41.626560    -54.523350    -30.667509    65.191437    -41.355267    5.848118    2.953709    3.604076    -0.833771    -0.387249    -2.873284    5.366737    1.951468    -0.893182    -7.782547    -8.594094    0.318531    0.403104    -0.352825    -2.789560    1.424751    -1.262337    2.929842    3.103309    3.283080    -2.053077    -6.552400    -13.071641    0.042051    -0.398224    -0.045506    
-1.373356    81.711067    94.522301    -0.239774    -4.261333    -176.326538    -2.060686    -14.363626    0.802795    -1.293424    3.931090    1.106874    3.023319    7.349344    -3.777311    5.908568    4.355947    -3.560838    1.101830    18.953026    -4.950575    -44.650467    47.564503    -37.885056    -2.860062    -3.639120    -17.589489    17.158531    -3.660944    2.788347    -3.602017    2.856742    0.288546    42.146786    -15.980796    41.308571    -55.083473    -30.419956    65.262970    -41.543064    6.404549    3.722721    3.605484    -0.830778    -0.383797    -2.872775    5.375914    1.925468    -0.891151    -7.784287    -8.587805    0.319099    0.405321    -0.353453    -2.788470    1.430975    -1.268255    2.930177    3.114967    3.286421    -2.056959    -6.557417    -13.084332    0.042544    -0.396500    -0.046040    
-1.374939    81.711090    94.524780    -0.237495    -4.250178    -176.311325    -2.057190    -14.361581    0.800598    -1.292512    3.948112    1.104374    3.026690    7.332250    -3.772251    5.924667    4.332884    -3.553436    1.098982    18.946404    -4.941140    -44.642490    47.538807    -37.903934    -2.881466    -3.611265    -17.582945    17.164232    -3.637713    2.777562    -3.595681    2.877280    0.302373    41.682526    -15.718843    41.091461    -55.586716    -30.195007    65.274544    -41.761543    6.888240    4.346432    3.607449    -0.828549    -0.380034    -2.872144    5.385530    1.899619    -0.889016    -7.785980    -8.581155    0.319475    0.407497    -0.353867    -2.786628    1.436123    -1.274755    2.930124    3.126926    3.289631    -2.061065    -6.562038    -13.095654    0.042957    -0.394349    -0.046487    
